<svg width="80" height="80" viewBox="0 0 100 100" fill="none" xmlns="http://www.w3.org/2000/svg">
<circle opacity="0.4" cx="50" cy="50" r="50" fill="#E4E4E4"/>
<path d="M36.752 44.672V44.992C36.3893 45.0027 36.112 45.0453 35.92 45.12C35.7387 45.184 35.616 45.312 35.552 45.504C35.488 45.6853 35.456 45.9733 35.456 46.368V54.304C35.456 54.688 35.488 54.976 35.552 55.168C35.616 55.36 35.7387 55.488 35.92 55.552C36.112 55.6053 36.3893 55.632 36.752 55.632H37.92C38.4213 55.632 38.8267 55.5787 39.136 55.472C39.456 55.3653 39.7067 55.2 39.888 54.976C40.08 54.7413 40.224 54.432 40.32 54.048C40.416 53.664 40.4907 53.1947 40.544 52.64H40.912C40.88 52.9707 40.864 53.408 40.864 53.952C40.864 54.1547 40.8693 54.448 40.88 54.832C40.9013 55.2053 40.9333 55.5947 40.976 56C40.432 55.9787 39.8187 55.968 39.136 55.968C38.4533 55.9573 37.8453 55.952 37.312 55.952C37.0773 55.952 36.7733 55.952 36.4 55.952C36.0373 55.952 35.6427 55.9573 35.216 55.968C34.7893 55.968 34.3573 55.9733 33.92 55.984C33.4827 55.984 33.0667 55.9893 32.672 56V55.68C33.0347 55.6587 33.3067 55.616 33.488 55.552C33.68 55.488 33.808 55.36 33.872 55.168C33.936 54.976 33.968 54.688 33.968 54.304V46.368C33.968 45.9733 33.936 45.6853 33.872 45.504C33.808 45.312 33.68 45.184 33.488 45.12C33.3067 45.0453 33.0347 45.0027 32.672 44.992V44.672C32.896 44.6827 33.1893 44.6933 33.552 44.704C33.9147 44.7147 34.304 44.72 34.72 44.72C35.0933 44.72 35.4613 44.7147 35.824 44.704C36.1973 44.6933 36.5067 44.6827 36.752 44.672ZM45.7903 47.536C46.4729 47.536 47.0863 47.6853 47.6303 47.984C48.1743 48.2827 48.6063 48.752 48.9263 49.392C49.2569 50.032 49.4223 50.864 49.4223 51.888C49.4223 52.912 49.2569 53.744 48.9263 54.384C48.6063 55.0133 48.1743 55.4773 47.6303 55.776C47.0863 56.0747 46.4729 56.224 45.7903 56.224C45.1183 56.224 44.5049 56.0747 43.9503 55.776C43.4063 55.4773 42.9689 55.0133 42.6383 54.384C42.3183 53.744 42.1583 52.912 42.1583 51.888C42.1583 50.864 42.3183 50.032 42.6383 49.392C42.9689 48.752 43.4063 48.2827 43.9503 47.984C44.5049 47.6853 45.1183 47.536 45.7903 47.536ZM45.7903 47.856C45.1823 47.856 44.6809 48.1707 44.2863 48.8C43.9023 49.4293 43.7103 50.4587 43.7103 51.888C43.7103 53.3173 43.9023 54.3467 44.2863 54.976C44.6809 55.5947 45.1823 55.904 45.7903 55.904C46.3983 55.904 46.8943 55.5947 47.2783 54.976C47.6729 54.3467 47.8703 53.3173 47.8703 51.888C47.8703 50.4587 47.6729 49.4293 47.2783 48.8C46.8943 48.1707 46.3983 47.856 45.7903 47.856ZM53.5799 59.008C53.0145 59.008 52.4812 58.9493 51.9799 58.832C51.4785 58.7147 51.0732 58.528 50.7639 58.272C50.4652 58.0267 50.3159 57.712 50.3159 57.328C50.3159 56.9547 50.4652 56.6347 50.7639 56.368C51.0625 56.1013 51.4679 55.8987 51.9799 55.76L52.0759 56.016C51.8412 56.0907 51.6545 56.24 51.5159 56.464C51.3772 56.688 51.3079 56.9387 51.3079 57.216C51.3079 57.7067 51.5319 58.08 51.9799 58.336C52.4385 58.6027 53.0305 58.736 53.7559 58.736C54.2359 58.736 54.7052 58.672 55.1639 58.544C55.6225 58.4267 56.0012 58.224 56.2999 57.936C56.5985 57.648 56.7479 57.2693 56.7479 56.8C56.7479 56.448 56.6199 56.16 56.3639 55.936C56.1185 55.7013 55.6279 55.584 54.8919 55.584H53.7079C53.3665 55.584 53.0359 55.5573 52.7159 55.504C52.3959 55.4507 52.1345 55.3387 51.9319 55.168C51.7292 54.9973 51.6279 54.736 51.6279 54.384C51.6279 54.0213 51.7772 53.6747 52.0759 53.344C52.3745 53.0027 52.9239 52.656 53.7239 52.304L53.9159 52.448C53.5532 52.64 53.2385 52.8373 52.9719 53.04C52.7052 53.232 52.5719 53.4613 52.5719 53.728C52.5719 54.0693 52.8279 54.24 53.3399 54.24H55.3399C55.7879 54.24 56.1985 54.304 56.5719 54.432C56.9559 54.56 57.2652 54.7627 57.4999 55.04C57.7345 55.3173 57.8519 55.68 57.8519 56.128C57.8519 56.6293 57.6919 57.0987 57.3719 57.536C57.0519 57.9733 56.5719 58.3253 55.9319 58.592C55.3025 58.8693 54.5185 59.008 53.5799 59.008ZM53.6599 52.592C53.1372 52.592 52.6625 52.5067 52.2359 52.336C51.8092 52.1547 51.4732 51.8773 51.2279 51.504C50.9825 51.1307 50.8599 50.6507 50.8599 50.064C50.8599 49.4773 50.9825 48.9973 51.2279 48.624C51.4732 48.2507 51.8092 47.9787 52.2359 47.808C52.6625 47.6267 53.1372 47.536 53.6599 47.536C54.1932 47.536 54.6679 47.6267 55.0839 47.808C55.5105 47.9787 55.8465 48.2507 56.0919 48.624C56.3372 48.9973 56.4599 49.4773 56.4599 50.064C56.4599 50.6507 56.3372 51.1307 56.0919 51.504C55.8465 51.8773 55.5105 52.1547 55.0839 52.336C54.6679 52.5067 54.1932 52.592 53.6599 52.592ZM53.6599 52.304C54.0652 52.304 54.3799 52.144 54.6039 51.824C54.8385 51.504 54.9559 50.9173 54.9559 50.064C54.9559 49.2107 54.8385 48.624 54.6039 48.304C54.3799 47.984 54.0652 47.824 53.6599 47.824C53.2652 47.824 52.9505 47.984 52.7159 48.304C52.4812 48.624 52.3639 49.2107 52.3639 50.064C52.3639 50.9173 52.4812 51.504 52.7159 51.824C52.9505 52.144 53.2652 52.304 53.6599 52.304ZM55.9639 48.864L55.6759 48.752C55.8252 48.3893 56.0812 48.0693 56.4439 47.792C56.8065 47.5147 57.1852 47.376 57.5799 47.376C57.8572 47.376 58.0812 47.456 58.2519 47.616C58.4225 47.7653 58.5079 47.9947 58.5079 48.304C58.5079 48.6347 58.4172 48.8693 58.2359 49.008C58.0652 49.136 57.8892 49.2 57.7079 49.2C57.5479 49.2 57.3985 49.1467 57.2599 49.04C57.1212 48.9227 57.0412 48.7413 57.0199 48.496C56.9985 48.2507 57.0732 47.936 57.2439 47.552L57.4519 47.6C57.0039 47.7707 56.6839 47.952 56.4919 48.144C56.2999 48.3253 56.1239 48.5653 55.9639 48.864ZM62.8528 47.536C63.5354 47.536 64.1488 47.6853 64.6928 47.984C65.2368 48.2827 65.6688 48.752 65.9888 49.392C66.3194 50.032 66.4848 50.864 66.4848 51.888C66.4848 52.912 66.3194 53.744 65.9888 54.384C65.6688 55.0133 65.2368 55.4773 64.6928 55.776C64.1488 56.0747 63.5354 56.224 62.8528 56.224C62.1808 56.224 61.5674 56.0747 61.0128 55.776C60.4688 55.4773 60.0314 55.0133 59.7008 54.384C59.3808 53.744 59.2208 52.912 59.2208 51.888C59.2208 50.864 59.3808 50.032 59.7008 49.392C60.0314 48.752 60.4688 48.2827 61.0128 47.984C61.5674 47.6853 62.1808 47.536 62.8528 47.536ZM62.8528 47.856C62.2448 47.856 61.7434 48.1707 61.3488 48.8C60.9648 49.4293 60.7728 50.4587 60.7728 51.888C60.7728 53.3173 60.9648 54.3467 61.3488 54.976C61.7434 55.5947 62.2448 55.904 62.8528 55.904C63.4608 55.904 63.9568 55.5947 64.3408 54.976C64.7354 54.3467 64.9328 53.3173 64.9328 51.888C64.9328 50.4587 64.7354 49.4293 64.3408 48.8C63.9568 48.1707 63.4608 47.856 62.8528 47.856Z" fill="black"/>
</svg>
